<svg viewBox="0 -20 512 511" xmlns="http://www.w3.org/2000/svg"><path d="m256.003906 124.214844c-19.855468-11.628906-63.804687-43.121094-128.078125-43.121094-16.679687 0-33.542969-1.597656-50.125-4.746094l-17.800781-3.382812v27.507812c0 55.480469 45.136719 100.621094 100.621094 100.621094 35.453125 0 54.367187-23.316406 95.386718-43.410156 41.980469 20.492187 59.964844 43.410156 95.371094 43.410156 55.484375 0 100.621094-45.140625 100.621094-100.621094v-27.503906l-17.796875 3.375c-16.597656 3.152344-33.464844 4.75-50.128906 4.75-64.277344 0-108.167969 31.464844-128.070313 43.121094zm-95.382812 46.878906c-36.15625 0-66.050782-27.308594-70.144532-62.382812 12.464844 1.582031 25 2.382812 37.449219 2.382812 42.996094 0 75.332031 16.519531 96.832031 29.277344-29.511718 16.988281-43.75 30.722656-64.136718 30.722656zm190.757812 0c-20.484375 0-33.46875-13.230469-64.082031-30.75 21.480469-12.75 53.789063-29.25 96.777344-29.25 12.441406 0 24.976562-.800781 37.449219-2.382812-4.09375 35.074218-33.988282 62.382812-70.144532 62.382812zm0 0"/><path d="m423.015625 17.398438c-12.921875 2.453124-26.023437 3.695312-38.941406 3.695312-43.75 0-86.796875 11.222656-128.070313 33.371094-41.242187-22.152344-84.289062-33.371094-128.078125-33.371094-12.917969 0-26.019531-1.242188-38.933593-3.695312l-88.992188-16.898438v99.972656c0 50.503906 23.4375 95.628906 60 125.097656v245.523438h30v-226.386719c21.324219 10.484375 45.296875 16.386719 70.621094 16.386719 40.792968 0 67.734375-16.496094 95.46875-34.289062 21.492187 13.761718 50.816406 34.289062 95.289062 34.289062 88.566406 0 160.621094-72.054688 160.621094-160.621094v-99.953125zm58.984375 83.074218c0 72.023438-58.597656 130.621094-130.621094 130.621094-38.511718 0-60.578125-18.332031-95.328125-39.625-34.023437 20.976562-56.949219 39.625-95.429687 39.625-72.023438 0-130.621094-58.597656-130.621094-130.621094v-63.738281l53.394531 10.140625c14.761719 2.800781 29.742188 4.21875 44.53125 4.21875 49.929688 0 88.808594 15.339844 128.070313 37.800781 40.355468-23.066406 78.855468-37.800781 128.078125-37.800781 14.785156 0 29.769531-1.417969 44.527343-4.21875l53.398438-10.128906zm0 0"/></svg>