<?xml version="1.0" encoding="iso-8859-1"?>
<!-- Generator: Adobe Illustrator 19.0.0, SVG Export Plug-In . SVG Version: 6.00 Build 0)  -->
<svg version="1.1" id="Layer_1" xmlns="http://www.w3.org/2000/svg" xmlns:xlink="http://www.w3.org/1999/xlink" x="0px" y="0px"
	 viewBox="0 0 512.007 512.007" style="enable-background:new 0 0 512.007 512.007;" xml:space="preserve">
<g>
	<g>
		<path d="M306.477,35.405v0.008c-1.953-2.094-4.719-3.414-7.812-3.414c-5.891,0-10.656,4.773-10.656,10.664
			c0,2.805,1.078,5.352,2.844,7.25v0.008l122.031,131.414H99.125L221.149,49.921l-0.008-0.008c1.766-1.898,2.859-4.445,2.859-7.25
			c0-5.891-4.773-10.664-10.664-10.664c-3.094,0-5.859,1.32-7.812,3.414l-0.008-0.008l-135.5,145.93H0v64h29.016l56.32,234.672
			h341.328l56.312-234.672h29.031v-64h-70.03L306.477,35.405z M409.852,458.663H102.149L50.953,245.335h410.086L409.852,458.663z
			 M490.664,223.999H21.336v-21.336h469.328V223.999z"/>
	</g>
</g>
<g>
	<g>
		<path d="M181.336,288.007c-5.891,0-10.672,4.766-10.672,10.656v106.672c0,5.891,4.781,10.672,10.672,10.672
			c5.891,0,10.664-4.781,10.664-10.672V298.663C192,292.772,187.227,288.007,181.336,288.007z"/>
	</g>
</g>
<g>
	<g>
		<path d="M256,288.007c-5.891,0-10.664,4.766-10.664,10.656v106.672c0,5.891,4.773,10.672,10.664,10.672
			c5.883,0,10.664-4.781,10.664-10.672V298.663C266.664,292.772,261.883,288.007,256,288.007z"/>
	</g>
</g>
<g>
	<g>
		<path d="M330.664,288.007c-5.891,0-10.656,4.766-10.656,10.656v106.672c0,5.891,4.766,10.672,10.656,10.672
			c5.891,0,10.672-4.781,10.672-10.672V298.663C341.336,292.772,336.555,288.007,330.664,288.007z"/>
	</g>
</g>
<g>
</g>
<g>
</g>
<g>
</g>
<g>
</g>
<g>
</g>
<g>
</g>
<g>
</g>
<g>
</g>
<g>
</g>
<g>
</g>
<g>
</g>
<g>
</g>
<g>
</g>
<g>
</g>
<g>
</g>
</svg>
