<svg xmlns="http://www.w3.org/2000/svg" width="21.34" height="21.344" viewBox="0 0 21.34 21.344">
  <defs>
    <style>
      .cls-1 {
        fill: #e2007a;
        fill-rule: evenodd;
      }
    </style>
  </defs>
  <path id="account.svg" class="cls-1" d="M1298.17,109.167c3.31,0,6-3.291,6-7.334s-2.7-7.333-6-7.333a5.5,5.5,0,0,0-4.3,2.2,8.214,8.214,0,0,0-1.7,5.13C1292.17,105.876,1294.86,109.167,1298.17,109.167Zm0-13.333c2.57,0,4.66,2.691,4.66,6s-2.09,6-4.66,6-4.67-2.692-4.67-6S1295.59,95.834,1298.17,95.834Zm4.66,12a0.667,0.667,0,0,0,0,1.334,4.67,4.67,0,0,1,4.67,4.666,0.669,0.669,0,0,1-.67.667H1289.5a0.669,0.669,0,0,1-.67-0.667,4.676,4.676,0,0,1,4.67-4.666,0.667,0.667,0,1,0,0-1.334,6.006,6.006,0,0,0-6,6,2,2,0,0,0,2,2h17.33a2,2,0,0,0,2-2A6.006,6.006,0,0,0,1302.83,107.833Z" transform="translate(-1287.5 -94.5)"/>
</svg>