<svg xmlns="http://www.w3.org/2000/svg" width="34" height="33" viewBox="0 0 34 33"><path fill="#fff" d="M23.67 32.98l.43.02c1.54 0 2.83-.56 3.84-1.66l.03-.02c.36-.44.77-.83 1.2-1.24.3-.29.6-.58.88-.88 1.35-1.4 1.34-3.18-.01-4.53l-3.75-3.74a3.06 3.06 0 0 0-2.23-1.03c-.8 0-1.58.35-2.24 1.01l-2.22 2.22c-.19-.12-.4-.21-.59-.31-.25-.13-.48-.24-.69-.37a23.5 23.5 0 0 1-5.63-5.13 12.94 12.94 0 0 1-1.88-3c.57-.53 1.11-1.07 1.63-1.6l.58-.59c1.41-1.4 1.41-3.14 0-4.54l-1.86-1.86-.64-.64c-.41-.42-.84-.86-1.27-1.25a3.08 3.08 0 0 0-2.21-.98c-.8 0-1.58.34-2.25.98L2.46 6.16a4.84 4.84 0 0 0-1.44 3.1c-.12 1.49.15 3.08.86 5 1.1 2.95 2.75 5.7 5.19 8.64a32.05 32.05 0 0 0 10.64 8.32c1.56.75 3.64 1.61 5.96 1.76zM8.31 21.88A27.73 27.73 0 0 1 3.4 13.7a10.04 10.04 0 0 1-.78-4.32c.08-.82.39-1.5.98-2.08l2.32-2.32c.36-.34.75-.52 1.13-.52.37 0 .74.18 1.09.53.42.38.82.8 1.24 1.22l.65.65 1.86 1.86c.76.76.76 1.51 0 2.27l-.59.6c-.57.58-1.11 1.13-1.71 1.66l-.03.03c-.54.53-.46 1.05-.33 1.43l.02.05a14.85 14.85 0 0 0 2.2 3.56c1.87 2.3 3.84 4.1 6.02 5.48.27.17.56.32.83.46l.69.36.07.04c.21.1.41.16.62.16.52 0 .85-.33.95-.44l2.34-2.33c.35-.36.73-.54 1.11-.54.46 0 .83.29 1.08.54l3.75 3.75c.92.92.5 1.75-.02 2.3-.26.28-.53.54-.82.82-.44.42-.9.86-1.31 1.35a3.39 3.39 0 0 1-2.97 1.1 15 15 0 0 1-5.36-1.6 30.28 30.28 0 0 1-10.12-7.9zM18.58 6.83a.8.8 0 0 0-.26 1.58 8.88 8.88 0 0 1 7.23 7.23.8.8 0 0 0 1.59-.27 10.33 10.33 0 0 0-2.92-5.62 10.4 10.4 0 0 0-5.64-2.92zm13.61 9.2h.14a.8.8 0 0 0 .66-.93 17.1 17.1 0 0 0-4.83-9.3A17.14 17.14 0 0 0 18.85 1a.8.8 0 0 0-.27 1.58 15.6 15.6 0 0 1 8.44 4.37 15.58 15.58 0 0 1 4.38 8.43c.06.39.4.66.79.66z"/></svg>