<svg xmlns="http://www.w3.org/2000/svg" xmlns:xlink="http://www.w3.org/1999/xlink" width="22" height="25" viewBox="0 0 22 25"><defs><path id="a" d="M1537 115.31c0 .38-.3.69-.69.69h-17.63a.68.68 0 0 1-.68-.74l1.14-15.13a.69.69 0 0 1 .68-.64h2.2a5.5 5.5 0 0 1 5.47-5.5 5.5 5.5 0 0 1 5.47 5.5h2.2c.36 0 .65.28.68.64l1.13 15c.02.05.03.12.03.18zm-1.44-.69l-1.04-13.75h-1.56v1.37a.69.69 0 1 1-1.36 0v-1.37h-8.21v1.37a.69.69 0 1 1-1.37 0v-1.37h-1.56l-1.04 13.75zm-8.07-19.25a4.12 4.12 0 0 0-4.1 4.12h8.2a4.12 4.12 0 0 0-4.1-4.12z"/></defs><g transform="translate(-1516 -92)"><use fill="#e2007a" xlink:href="#a"/></g></svg>