<svg xmlns="http://www.w3.org/2000/svg" xmlns:xlink="http://www.w3.org/1999/xlink" width="26" height="26" viewBox="0 0 26 26"><defs><path id="a" d="M1361 114.05v.1c0 .21-.04.37-.11.5-.1.16-.25.34-.44.53l-.29.27c-.2.2-.38.33-.55.43-.13.07-.28.1-.45.12l-.14-.01c-.25-.03-.5-.17-.74-.4l-6.34-6.1-.22.14c-1.5.9-3.1 1.4-4.88 1.4a8.97 8.97 0 0 1-6.24-2.49 8.2 8.2 0 0 1-2.3-3.84 8.39 8.39 0 0 1 2.3-8.22 9.13 9.13 0 0 1 12.5 0 8.38 8.38 0 0 1 2.54 6.88 8.2 8.2 0 0 1-1.2 3.5c-.04.18-.09.31-.14.4l6.3 6.06c.25.24.4.5.4.73zm-7.13-13.34a6.83 6.83 0 0 0-1.9-3.14 7.07 7.07 0 0 0-5.13-2.06c-1.92 0-3.74.76-5.14 2.06a6.93 6.93 0 0 0 0 9.9 7.6 7.6 0 0 0 5.14 2.05c1.95 0 3.77-.73 5.13-2.04a6.87 6.87 0 0 0 1.9-6.77z"/></defs><g transform="translate(-1336 -92)"><use fill="#505050" xlink:href="#a"/></g></svg>