<?xml version="1.0"?>
<svg xmlns="http://www.w3.org/2000/svg" xmlns:xlink="http://www.w3.org/1999/xlink" version="1.1" id="Layer_1" x="0px" y="0px" viewBox="0 0 469.333 469.333" style="enable-background:new 0 0 469.333 469.333;" xml:space="preserve" width="512px" height="512px" class=""><g><g>
	<g>
		<path d="M469.333,42.667C469.333,19.135,450.198,0,426.667,0c-11.396,0-22.104,4.438-30.167,12.5l-33.271,33.271    c-31-8.656-61.01,0.677-82.229,21.885L46.415,302.241c-4.428-2.251-9.297-3.574-14.415-3.574c-17.646,0-32,14.354-32,32    c0,8.563,3.333,16.604,9.375,22.625l106.656,106.656c6.031,6.052,14.073,9.385,22.635,9.385c17.646,0,32-14.354,32-32    c0-5.118-1.323-9.987-3.574-14.415l234.574-234.585c16.125-16.104,25-37.531,25-60.333c0-7.219-1.021-14.438-3.104-21.896    l33.271-33.271C464.896,64.771,469.333,54.062,469.333,42.667z M131.125,444.875L24.448,338.198c-2.01-2-3.115-4.677-3.115-7.531    C21.333,324.781,26.115,320,32,320c2.854,0,5.531,1.104,7.542,3.125l106.667,106.667l0.01,0.01c2.01,2,3.115,4.677,3.115,7.531    C149.344,446.094,137.302,451.063,131.125,444.875z M441.75,57.75l-37.854,37.854c-2.906,2.906-3.885,7.229-2.51,11.104    c2.656,7.5,3.948,14.458,3.948,21.292c0,17.094-6.656,33.167-18.75,45.25l-233.37,233.38l-90.51-90.51l233.38-233.38    c16.906-16.917,40.26-24.125,66.542-14.792c3.844,1.365,8.188,0.385,11.104-2.51l37.854-37.854    c4.031-4.031,9.385-6.25,15.083-6.25c11.76,0,21.333,9.573,21.333,21.333C448,48.365,445.781,53.719,441.75,57.75z" data-original="#000000" class="active-path" data-old_color="#ffffff" fill="#ffffff"/>
	</g>
</g></g> </svg>
