<?xml version="1.0" encoding="iso-8859-1"?>
<!-- Generator: Adobe Illustrator 19.0.0, SVG Export Plug-In . SVG Version: 6.00 Build 0)  -->
<svg version="1.1" id="Layer_1" xmlns="http://www.w3.org/2000/svg" xmlns:xlink="http://www.w3.org/1999/xlink" x="0px" y="0px"
	 viewBox="0 0 512 512" style="enable-background:new 0 0 512 512;" xml:space="preserve">
	 <defs>
    <style>
      g {
        fill: #ffffff;
        fill-rule: ffffff;
      }
    </style>
  </defs>
<g>
	<g>
		<path d="M512,254.847c0-12.13-3.501-23.886-10.126-33.998c-5.646-8.618-7.764-19.153-5.958-29.664
			c1.98-11.533,0.65-23.365-3.846-34.217c-4.642-11.206-12.374-20.727-22.361-27.533c-8.401-5.725-14.433-14.838-16.983-25.66
			c-2.64-11.201-8.353-21.439-16.524-29.609c-8.439-8.439-19.038-14.236-30.654-16.764c-10.521-2.291-19.66-8.284-25.733-16.875
			c-6.753-9.557-16.061-16.985-26.916-21.481c-11.209-4.642-23.407-5.906-35.285-3.655c-10.122,1.917-20.666-0.158-29.686-5.847
			C278.032,3.299,266.593,0,254.845,0c-12.13,0-23.887,3.501-33.998,10.125c-8.618,5.647-19.154,7.764-29.663,5.958
			c-11.531-1.979-23.364-0.65-34.218,3.845c-11.206,4.643-20.726,12.375-27.532,22.362c-5.725,8.401-14.839,14.433-25.66,16.984
			c-11.199,2.639-21.438,8.352-29.609,16.523C65.727,84.233,59.93,94.833,57.4,106.451c-2.29,10.519-8.283,19.658-16.876,25.732
			c-9.558,6.756-16.985,16.063-21.481,26.917c-4.642,11.208-5.905,23.408-3.655,35.284c1.918,10.124-0.157,20.667-5.846,29.686
			C3.299,233.965,0,245.405,0,257.154c0,12.13,3.501,23.886,10.126,33.998c5.646,8.618,7.764,19.153,5.958,29.664
			c-1.98,11.533-0.65,23.365,3.846,34.217c4.642,11.206,12.374,20.727,22.361,27.533c8.401,5.725,14.433,14.838,16.983,25.66
			c2.64,11.201,8.353,21.439,16.524,29.609c8.439,8.439,19.038,14.236,30.654,16.764c10.522,2.291,19.66,8.284,25.733,16.875
			c6.753,9.557,16.061,16.985,26.916,21.481c11.208,4.643,23.408,5.906,35.286,3.655c10.121-1.919,20.666,0.158,29.685,5.847
			c9.897,6.243,21.337,9.542,33.084,9.542c12.13,0,23.887-3.501,33.998-10.125c8.618-5.647,19.152-7.765,29.663-5.958
			c11.533,1.979,23.364,0.651,34.218-3.845c11.206-4.643,20.726-12.375,27.532-22.362c5.725-8.401,14.839-14.433,25.66-16.984
			c11.199-2.639,21.438-8.352,29.609-16.523c8.438-8.437,14.235-19.037,16.764-30.655c2.29-10.519,8.283-19.658,16.876-25.732
			c9.558-6.756,16.985-16.063,21.481-26.917c4.642-11.208,5.905-23.408,3.655-35.284c-1.918-10.124,0.157-20.667,5.846-29.686
			C508.701,278.035,512,266.595,512,254.847z M485.207,277.048c-8.451,13.4-11.518,29.155-8.636,44.367
			c1.51,7.964,0.659,16.152-2.46,23.68c-3.019,7.289-8.001,13.536-14.408,18.065c-12.765,9.024-21.655,22.537-25.033,38.05
			c-1.696,7.79-5.587,14.902-11.256,20.57c-5.488,5.488-12.357,9.324-19.865,11.093c-15.797,3.723-29.234,12.727-37.838,25.351
			c-4.563,6.697-10.954,11.885-18.481,15.003c-7.29,3.019-15.227,3.914-22.96,2.586c-15.615-2.68-31.345,0.515-44.295,9
			c-6.779,4.442-14.671,6.79-22.819,6.79c-7.89,0-15.568-2.212-22.203-6.397c-10.116-6.38-21.572-9.691-33.126-9.691
			c-3.75,0-7.513,0.349-11.241,1.056c-7.969,1.508-16.154,0.658-23.683-2.46c-7.29-3.02-13.536-8.001-18.064-14.408
			c-9.022-12.764-22.535-21.655-38.051-25.033c-7.788-1.696-14.901-5.588-20.569-11.257c-5.488-5.487-9.325-12.357-11.094-19.864
			c-3.722-15.797-12.724-29.234-25.349-37.838c-6.697-4.564-11.885-10.955-15.004-18.483c-3.019-7.288-3.913-15.227-2.587-22.958
			c2.681-15.614-0.515-31.345-8.999-44.294c-4.442-6.78-6.79-14.672-6.79-22.82c0-7.89,2.212-15.567,6.396-22.202
			c8.451-13.4,11.518-29.155,8.636-44.367c-1.509-7.964-0.659-16.152,2.46-23.681c3.019-7.289,8.001-13.536,14.408-18.065
			c12.765-9.024,21.655-22.537,25.033-38.05c1.696-7.79,5.587-14.902,11.256-20.57c5.488-5.488,12.357-9.324,19.865-11.093
			c15.798-3.723,29.234-12.727,37.838-25.351c4.563-6.697,10.954-11.885,18.481-15.003c7.291-3.018,15.228-3.913,22.96-2.586
			c15.613,2.68,31.345-0.515,44.295-9c6.779-4.442,14.671-6.79,22.819-6.79c7.89,0,15.568,2.212,22.205,6.396
			c13.4,8.451,29.156,11.517,44.368,8.636c7.965-1.51,16.152-0.658,23.681,2.46c7.29,3.02,13.536,8.001,18.064,14.408
			c9.022,12.764,22.535,21.655,38.051,25.033c7.788,1.696,14.901,5.588,20.569,11.257c5.488,5.487,9.325,12.357,11.094,19.864
			c3.722,15.797,12.725,29.234,25.349,37.838c6.697,4.564,11.885,10.955,15.004,18.483c3.019,7.288,3.913,15.227,2.587,22.958
			c-2.681,15.614,0.515,31.345,8.999,44.294c4.442,6.78,6.79,14.672,6.79,22.82C491.604,262.737,489.392,270.414,485.207,277.048z"
			/>
	</g>
</g>
<g>
	<g>
		<g>
			<path d="M225.462,226.012v-47.383c0-27.167-18.006-37.275-40.75-37.275c-23.06,0-40.75,10.108-40.75,37.275v47.383
				c0,27.167,17.69,37.276,40.75,37.275C207.456,263.287,225.462,253.179,225.462,226.012z M206.509,226.012
				c0,13.899-8.214,20.533-21.797,20.533c-13.583,0-21.797-6.634-21.797-20.533v-47.383c0-13.899,8.213-20.533,21.797-20.533
				c13.582,0,21.797,6.635,21.797,20.533V226.012z"/>
			<path d="M322.126,251.285c-23.06,0-40.75,10.108-40.75,37.275v47.383c0,27.167,17.69,37.275,40.75,37.275
				c22.744,0,40.75-10.108,40.75-37.275V288.56C362.875,261.393,344.87,251.285,322.126,251.285z M343.922,335.942
				c0,13.899-8.214,20.533-21.797,20.533c-13.583,0-21.797-6.634-21.797-20.533v-47.383c0-13.899,8.213-20.533,21.797-20.533
				c13.582,0,21.797,6.634,21.797,20.533V335.942z"/>
			<path d="M323.388,139.458c0-6.001-5.685-10.425-10.739-10.424c-3.159,0-6.317,1.58-7.897,4.739l-118.46,234.392
				c-0.632,1.263-0.949,2.842-0.949,4.106c0,5.055,4.422,9.477,10.108,9.477c3.791,0,7.266-1.58,8.845-5.055L322.441,143.88
				C323.072,142.301,323.388,141.037,323.388,139.458z"/>
		</g>
	</g>
</g>
<g>
</g>
<g>
</g>
<g>
</g>
<g>
</g>
<g>
</g>
<g>
</g>
<g>
</g>
<g>
</g>
<g>
</g>
<g>
</g>
<g>
</g>
<g>
</g>
<g>
</g>
<g>
</g>
<g>
</g>
</svg>
