<?xml version="1.0" encoding="iso-8859-1"?>
<!-- Generator: Adobe Illustrator 19.0.0, SVG Export Plug-In . SVG Version: 6.00 Build 0)  -->
<svg version="1.1" id="Layer_1" xmlns="http://www.w3.org/2000/svg" xmlns:xlink="http://www.w3.org/1999/xlink" x="0px" y="0px"
	 viewBox="0 0 512 512" style="enable-background:new 0 0 512 512;" xml:space="preserve">
	 <defs>
    <style>
      g {
        fill: #ffffff;
        fill-rule: ffffff;
      }
    </style>
  </defs>
<g>
	<g>
		<path d="M437.019,74.982C388.667,26.628,324.381,0,256,0C187.62,0,123.333,26.628,74.98,74.982C26.628,123.333,0,187.619,0,256
			s26.628,132.667,74.98,181.019C123.333,485.372,187.62,512,256,512c68.381,0,132.667-26.628,181.019-74.981
			C485.372,388.667,512,324.381,512,256S485.372,123.333,437.019,74.982z M256,491.602c-129.911,0-235.602-105.69-235.602-235.602
			S126.089,20.398,256,20.398S491.602,126.089,491.602,256S385.911,491.602,256,491.602z"/>
	</g>
</g>
<g>
	<g>
		<path d="M387.618,124.237c-13.918-13.917-36.565-13.917-50.483,0L124.443,336.928c-6.824,6.824-10.558,15.898-10.515,25.548
			c0.043,9.652,3.859,18.691,10.745,25.455c6.963,6.838,16.061,10.25,25.156,10.25c9.228,0,18.452-3.513,25.437-10.526
			l212.354-212.935C401.536,160.803,401.536,138.155,387.618,124.237z M373.184,160.306l-212.368,212.95
			c-5.991,6.016-15.793,6.071-21.851,0.121c-2.973-2.92-4.621-6.824-4.641-10.994c-0.018-4.167,1.594-8.085,4.542-11.031
			L351.557,138.66c5.966-5.962,15.672-5.963,21.637-0.001C379.158,144.626,379.158,154.332,373.184,160.306z"/>
	</g>
</g>
<g>
	<g>
		<path d="M174.916,129.53c-25.027,0-45.386,20.361-45.386,45.386c0,25.026,20.36,45.386,45.386,45.386s45.386-20.361,45.386-45.386
			C220.303,149.891,199.943,129.53,174.916,129.53z M174.916,199.904c-13.778,0-24.988-11.209-24.988-24.988
			s11.21-24.988,24.988-24.988c13.778,0,24.988,11.209,24.988,24.988S188.694,199.904,174.916,199.904z"/>
	</g>
</g>
<g>
	<g>
		<path d="M337.084,291.697c-25.026,0-45.386,20.361-45.386,45.386s20.361,45.386,45.386,45.386s45.386-20.361,45.386-45.386
			S362.109,291.697,337.084,291.697z M337.084,362.072c-13.779,0-24.988-11.209-24.988-24.988s11.209-24.988,24.988-24.988
			s24.988,11.209,24.988,24.988S350.863,362.072,337.084,362.072z"/>
	</g>
</g>
<g>
	<g>
		<path d="M462.131,298.132c-5.464-1.389-11.011,1.908-12.4,7.367C427.176,394.055,347.512,455.904,256,455.904
			c-5.633,0-10.199,4.567-10.199,10.199c0,5.632,4.566,10.199,10.199,10.199c100.847,0,188.64-68.167,213.498-165.771
			C470.888,305.074,467.591,299.522,462.131,298.132z"/>
	</g>
</g>
<g>
	<g>
		<path d="M466.104,245.801c-5.632,0-10.199,4.567-10.199,10.199c0,2.915-0.063,5.855-0.188,8.739
			c-0.244,5.628,4.121,10.387,9.749,10.63c0.15,0.007,0.299,0.01,0.448,0.01c5.43,0,9.945-4.282,10.182-9.759
			c0.138-3.176,0.207-6.412,0.207-9.62C476.303,250.368,471.736,245.801,466.104,245.801z"/>
	</g>
</g>
<g>
</g>
<g>
</g>
<g>
</g>
<g>
</g>
<g>
</g>
<g>
</g>
<g>
</g>
<g>
</g>
<g>
</g>
<g>
</g>
<g>
</g>
<g>
</g>
<g>
</g>
<g>
</g>
<g>
</g>
</svg>
