<svg xmlns="http://www.w3.org/2000/svg" xmlns:xlink="http://www.w3.org/1999/xlink" width="30" height="30" viewBox="0 0 30 30"><defs><path id="a" d="M1425 523a3 3 0 0 1 3-3h22a3 3 0 0 1 3 3v22a3 3 0 0 1-3 3h-22a3 3 0 0 1-3-3zm1 21a3 3 0 0 0 3 3h20a3 3 0 0 0 3-3v-20a3 3 0 0 0-3-3h-20a3 3 0 0 0-3 3zm19.35-10.33V536c-.71 3.42-3.96 6-7.68 6a7.59 7.59 0 0 1-7.67-7.5c0-4.14 3.44-7.5 7.67-7.5 2.1 0 3.99.82 5.37 2.14l-1.73 1.84a5.16 5.16 0 0 0-8.75 3.52c0 2.76 2.29 5 5.11 5a5.1 5.1 0 0 0 4.89-3.5h-4.38v-2.33zm4.65 1.22h-1.47v1.43h-1.25v-1.43h-1.47v-1.23h1.47v-1.43h1.25v1.43h1.47z"/></defs><g transform="translate(-1424 -519)"><use fill="#505050" xlink:href="#a"/></g></svg>