<?xml version="1.0"?>
<svg xmlns="http://www.w3.org/2000/svg" xmlns:xlink="http://www.w3.org/1999/xlink" version="1.1" viewBox="0 0 192 192" width="50px" height="50px"><g fill="none" fill-rule="nonzero" stroke="none" stroke-width="1" stroke-linecap="butt" stroke-linejoin="miter" stroke-miterlimit="10" stroke-dasharray="" stroke-dashoffset="0" font-family="none" font-weight="none" font-size="none" text-anchor="none" style="mix-blend-mode: normal"><path d="M0,192v-192h192v192z" fill="none"/><g fill="#e2007a"><path d="M61.44,11.52c-27.52326,0 -49.92,22.39674 -49.92,49.92v69.12c0,27.52326 22.39674,49.92 49.92,49.92h69.12c27.52326,0 49.92,-22.39674 49.92,-49.92v-69.12c0,-27.52326 -22.39674,-49.92 -49.92,-49.92zM61.44,19.2h69.12c23.3721,0 42.24,18.8679 42.24,42.24v69.12c0,23.3721 -18.8679,42.24 -42.24,42.24h-69.12c-23.3721,0 -42.24,-18.8679 -42.24,-42.24v-69.12c0,-23.3721 18.8679,-42.24 42.24,-42.24zM142.08,42.24c-4.24155,0 -7.68,3.43845 -7.68,7.68c0,4.24155 3.43845,7.68 7.68,7.68c4.24155,0 7.68,-3.43845 7.68,-7.68c0,-4.24155 -3.43845,-7.68 -7.68,-7.68zM96,53.76c-23.28303,0 -42.24,18.95697 -42.24,42.24c0,23.28303 18.95697,42.24 42.24,42.24c23.28303,0 42.24,-18.95697 42.24,-42.24c0,-23.28303 -18.95697,-42.24 -42.24,-42.24zM96,61.44c19.13244,0 34.56,15.42756 34.56,34.56c0,19.13244 -15.42756,34.56 -34.56,34.56c-19.13244,0 -34.56,-15.42756 -34.56,-34.56c0,-19.13244 15.42756,-34.56 34.56,-34.56z"/></g></g></svg>
