<svg xmlns="http://www.w3.org/2000/svg" xmlns:xlink="http://www.w3.org/1999/xlink" width="30" height="30" viewBox="0 0 30 30"><defs><path id="a" d="M1384 523a3 3 0 0 1 3-3h22a3 3 0 0 1 3 3v22a3 3 0 0 1-3 3h-22a3 3 0 0 1-3-3zm1 21a3 3 0 0 0 3 3h20a3 3 0 0 0 3-3v-20a3 3 0 0 0-3-3h-20a3 3 0 0 0-3 3zm11.16-.9V534h-1.82v-3.07h1.82v-2.5c0-.46-.09-3.52 3.84-3.52h2.78v3.18h-2.04c-.4 0-.81.42-.81.74v2.1h2.85a40.1 40.1 0 0 1-.35 3.06h-2.52v9.1z"/></defs><g transform="translate(-1383 -519)"><use fill="#505050" xlink:href="#a"/></g></svg>