<svg xmlns="http://www.w3.org/2000/svg" xmlns:xlink="http://www.w3.org/1999/xlink" width="30" height="30" viewBox="0 0 30 30"><defs><path id="a" d="M1343 523a3 3 0 0 1 3-3h22a3 3 0 0 1 3 3v22a3 3 0 0 1-3 3h-22a3 3 0 0 1-3-3zm1 21a3 3 0 0 0 3 3h20a3 3 0 0 0 3-3v-20a3 3 0 0 0-3-3h-20a3 3 0 0 0-3 3zm3.97-14.05c-.2-.48-.05-.73.46-.74.86-.02 1.72-.01 2.58 0 .35 0 .59.2.72.54a16.2 16.2 0 0 0 1.75 3.26c.19.27.38.54.66.73.3.2.54.14.68-.2.1-.22.13-.45.15-.69.07-.8.08-1.6-.04-2.4-.07-.49-.35-.81-.85-.9-.25-.05-.21-.15-.09-.3.21-.24.41-.4.81-.4h2.98c.47.1.57.3.64.78v3.33c0 .18.1.73.42.85.26.09.44-.13.6-.3a10.3 10.3 0 0 0 1.67-2.59c.2-.4.38-.83.55-1.26.12-.31.31-.47.67-.46h2.87c.08 0 .17 0 .25.02.48.08.61.3.47.77-.24.74-.7 1.36-1.14 1.98-.48.67-1 1.3-1.47 1.98-.43.6-.4.92.14 1.45.6.59 1.24 1.14 1.77 1.8.24.28.47.57.64.9.24.48.02 1-.4 1.04h-2.64a2.03 2.03 0 0 1-1.68-.7c-.36-.36-.7-.76-1.05-1.15-.14-.16-.3-.3-.47-.42-.36-.24-.68-.17-.88.21-.21.38-.26.81-.28 1.24-.03.62-.22.78-.84.81a6.73 6.73 0 0 1-3.77-.81 8.32 8.32 0 0 1-2.54-2.39 32.19 32.19 0 0 1-3.34-5.98z"/></defs><g transform="translate(-1342 -519)"><use fill="#505050" xlink:href="#a"/></g></svg>