<?xml version="1.0" standalone="no"?>
<!DOCTYPE svg PUBLIC "-//W3C//DTD SVG 20010904//EN"
 "http://www.w3.org/TR/2001/REC-SVG-20010904/DTD/svg10.dtd">
<svg version="1.0" xmlns="http://www.w3.org/2000/svg"
 width="292.000000pt" height="292.000000pt" viewBox="0 0 292.000000 292.000000"
 preserveAspectRatio="xMidYMid meet">
<metadata>
Created by potrace 1.11, written by Peter Selinger 2001-2013
</metadata>
<g transform="translate(0.000000,292.000000) scale(0.100000,-0.100000)"
fill="#000000" stroke="none">
<path d="M1407 2914 c-1 -1 -38 -4 -83 -8 -321 -25 -629 -237 -768 -530 -39
-80 -50 -114 -72 -216 -9 -41 -6 -163 6 -214 36 -161 157 -305 380 -453 101
-68 162 -101 392 -215 401 -198 522 -296 533 -427 6 -72 -85 -216 -160 -254
-17 -8 -48 -18 -70 -21 -43 -7 -351 -9 -400 -2 -16 2 -57 7 -90 11 -85 9 -170
32 -242 65 -77 36 -147 60 -174 60 -60 0 -132 -88 -170 -210 -38 -123 -31
-198 22 -249 50 -48 349 -151 557 -191 446 -87 761 -9 1027 255 295 291 357
579 182 842 -92 138 -247 271 -477 410 -76 46 -162 91 -397 207 -182 90 -278
149 -312 192 -29 37 -44 99 -38 164 10 118 84 200 237 260 79 31 151 28 321
-15 446 -112 463 -110 543 81 35 85 46 163 30 211 -27 81 -145 149 -343 199
-52 14 -111 26 -131 29 -121 13 -153 16 -223 19 -42 1 -78 1 -80 0z"/>
</g>
</svg>
